<svg width="800" height="200" viewBox="0 0 800 200" fill="none" xmlns="http://www.w3.org/2000/svg">
  <!-- Logo Icon -->
  <circle cx="100" cy="100" r="90" fill="url(#gradient1)"/>
  <path d="M100 45L70 70V125H130V70L100 45Z" fill="white" opacity="0.95"/>
  <path d="M100 45L70 70H130L100 45Z" fill="white"/>
  <rect x="85" y="85" width="10" height="10" rx="2" fill="url(#gradient2)"/>
  <rect x="105" y="85" width="10" height="10" rx="2" fill="url(#gradient2)"/>
  <rect x="85" y="105" width="10" height="10" rx="2" fill="url(#gradient2)"/>
  <rect x="105" y="105" width="10" height="10" rx="2" fill="url(#gradient2)"/>
  <circle cx="100" cy="65" r="8" fill="#10B981"/>
  <path d="M100 57L95 62L100 67L105 62Z" fill="white"/>
  
  <!-- RETOERP Text -->
  <text x="220" y="110" font-family="Arial, sans-serif" font-size="48" font-weight="bold" fill="#1F2937">RETOERP</text>
  
  <!-- Tagline -->
  <text x="220" y="140" font-family="Arial, sans-serif" font-size="18" font-weight="normal" fill="#6B7280">Real Estate Automation SaaS</text>
  
  <!-- Small accent line -->
  <rect x="220" y="150" width="120" height="3" rx="1.5" fill="url(#gradient1)"/>
  
  <!-- Gradients -->
  <defs>
    <linearGradient id="gradient1" x1="0%" y1="0%" x2="100%" y2="100%">
      <stop offset="0%" style="stop-color:#4F46E5;stop-opacity:1" />
      <stop offset="100%" style="stop-color:#7C3AED;stop-opacity:1" />
    </linearGradient>
    <linearGradient id="gradient2" x1="0%" y1="0%" x2="100%" y2="100%">
      <stop offset="0%" style="stop-color:#60A5FA;stop-opacity:1" />
      <stop offset="100%" style="stop-color:#34D399;stop-opacity:1" />
    </linearGradient>
  </defs>
</svg>
